<mxfile host="app.diagrams.net" modified="2023-09-22T01:04:22.604Z" agent="Mozilla/5.0 (Windows NT 10.0; Win64; x64) AppleWebKit/537.36 (KHTML, like Gecko) Chrome/116.0.0.0 Safari/537.36" version="21.8.0" etag="PzDuQxKi4H4kAz6cnffD" type="github">
  <diagram name="Page-1" id="tMzUqEJ9yeKTwZ_Dhfz-">
    <mxGraphModel>
      <root>
        <mxCell id="0" />
        <mxCell id="1" parent="0" />
      </root>
    </mxGraphModel>
  </diagram>
</mxfile>
